<svg version="1.0" xmlns="http://www.w3.org/2000/svg" width="869.333" height="869.333" viewBox="0 0 652 652"><path d="M384.4 2c-1.8.4-4 1.1-5 1.5-1.1.4-2.3.9-2.9.9-.9.1-4.3 2.1-12.5 7.4-4.4 2.9-6.8 4-7.4 3.4-.3-.3-.6 0-.6.6s-.8 1.3-1.8 1.6c-1 .4-2.8 2.3-4 4.4-1.1 2.1-3 4.6-4.2 5.7-1.1 1-2 2.4-2 3 0 .7-1.3 1.8-3 2.5-2.7 1.1-7 7.7-7 10.8 0 .7-.4 1.2-.9 1.2-.7 0-3.5 2.2-7.4 5.8-.4.4-2.2 2.6-3.8 4.9-1.7 2.4-3.8 4.3-4.6 4.3-4.5 0-16 7.9-21.1 14.4-1.8 2.3-2.7 1.4-4.2-3.9-1-3.6-1-6.1-.1-11.5 2.2-13.4 1-16-7.2-16-2.8 0-4.7-.5-4.7-1.1 0-.7-1.2-.9-3.2-.5-1.8.3-3.9.6-4.5.6-5.2-.3-7-.3-8.3.1-.9.3-1.6-.5-1.8-2.1-.4-2.6-1.8-4-3.9-4-.7 0-3.8 2.2-7 4.9-5.3 4.4-6.3 4.8-10.3 4.6-9.1-.6-18.5 3-24.3 9.1-2.6 2.8-4.3 3.7-7.4 3.9-2.2.2-5.3 1-6.9 1.8-4.4 2.3-15.1 13.5-18.4 19.2-2.4 4.2-7.5 17.8-7.3 19.5 0 .3-.3 1.5-.8 2.7-.4 1.2-.9 5.3-1 9.2-.1 4.7-.6 7.2-1.5 7.5-1.9.7-5.6-4.9-7-10.8-.7-2.8-1.3-4.3-1.3-3.3-.2 4.3 2.4 11.1 5.4 14 3.8 3.9 6.5 7.7 6.5 9.4 0 .6-1.4 2.5-3.1 4.1-2.1 1.9-2.8 3.2-2 3.6.7.5 1 .2.9-.6-.2-.7.7-1.4 2-1.6 2.6-.4 2.9 1.3.5 2.7-1 .6-1.2 1.1-.5 1.1 1.5 0 1.6 2 .1 2-.7 0-1.7.7-2.4 1.6-1 1.5-1.3 1.5-2.8-.1-.9-.9-1.7-2.2-1.7-2.8 0-.7.5-.4 1.1.5 1 1.7 3.9 1.4 3.9-.4 0-.6-.7-.8-1.5-.4-.8.3-1.5.2-1.5-.3 0-.4-1.9-2.9-4.2-5.4-2.4-2.5-5.3-5.8-6.5-7.4-1.8-2.3-2.4-2.6-3.5-1.5s-1 1.2.6.6c1.3-.5 1.7-.4 1.2.4-.4.7-.2 1.2.5 1.2.6 0 .9.8.6 2-.3 1.1-.1 2.1.4 2.1.5.1 1.4.3 1.9.4.6.1 1.3.3 1.8.4.4.1 0 .5-.8 1.1-.8.5-1.1 1.3-.6 1.7.5.4 1.1.2 1.3-.5.3-.6.9-1.2 1.4-1.2.6 0 .8.4.5.9-.3.4.2 1.7 1 2.7.9 1 1.2 1.3.8.5-.5-1-.3-1.2.5-.7.7.5.9 1.1.6 1.5-1.2 1.1-3 .7-3.7-.9-.6-1.3-.7-1.3-.7.1-.1.9.6 2.2 1.4 2.9 2 1.7 1.9 3.4-.1 2.6-1.3-.5-1.4-.3-.6.7.7.8.7 1.8.2 2.7-.6.8-1 2.1-1 2.9 0 1.1.4.9 1.6-.5.8-1 1.3-1.3.9-.7-.3.7 0 1.3.7 1.3 1 0 1 .2-.1.9-.7.5-1 1.4-.6 2 .4.7.1 1.8-.5 2.6-.7.8-1 1.5-.7 1.5.2 0-1.3 1.8-3.4 4.1-2.2 2.4-3.6 4.6-3.2 5.5.3.8 1.1 1.3 1.7 1.1.6-.2 1.9 0 2.8.5 1.4.6 1.6.5 1.2-.7-.3-.8-1.1-1.2-1.8-.8-.6.4-.4-.1.4-1.2 1.4-1.7 1.3-1.7-.9-1-2.1.6-2.2.5-1-.8.8-.8 1.8-1.2 2.3-.9.5.3.6-.2.3-1.2-.5-1.1-.3-1.5.5-1 .7.4.8.3.4-.4s-.5-1.2-.2-1.2 1 .9 1.6 2c.6 1.1.7 2 .3 1.9-2-.3-2.7.2-1.3 1.1 1.1.7 1.1 1 .2 1-.7 0-1 .5-.7 1 .4.6 1.1.7 1.7.4.6-.4.8.2.3 1.7-.5 1.9-.4 2.1.4.9.7-1 1.1-1.1 1.1-.3 0 .7.5 1.3 1.1 1.3.8 0 .7-.5-.1-1.5-.7-.9-1-1.8-.7-2.1.8-.9 2.8.6 2.2 1.6-.3.4.2 1 1 1.4.9.3 1.2 1.2.9 2.3-.5 1.6-.4 1.6 1-.1 2.2-2.7 2-.6-.1 2.3-3.9 5.1-5.5 6.3-6.6 5.2-.8-.8-.8-1.4.1-2.3.7-.7 1.2-1.7 1.2-2.3 0-.5-.5-.2-1.1.8-.8 1.4-1.4 1.6-2.5.6-.7-.6-1.1-1.5-.8-2 .3-.5-.2-.6-1-.3s-1.2 1.2-.9 2c.3.8-.1 1.4-1.1 1.4s-1.3-.5-.9-1.8c.6-1.5.5-1.6-1.3-.2-1 .8-1.6 1.1-1.3.7.6-.8-3.5-5.7-4.7-5.7-1 0-3.3-2.8-2.7-3.3.3-.3-.8-2.6-2.5-5-2.9-4.3-6.6-14.2-7.6-20.2-.2-1.7-.5-3-.6-3-.3 0-.8-2.8-1.3-6.4-.2-1.4-.9-2.6-1.6-2.7-.6-.1-.7 0-.2.2.6.3.7 1.2.5 1.9-.3.8-.2 1.9.2 2.6.4.7.9 3 1 5.3.3 3.8.3 4-1.1 2.2-.8-1.1-1.5-2.8-1.5-3.7 0-2.5-1.9-3.4-2.7-1.4-.3 1 .8 4.8 2.7 8.8 1.8 4 3.8 8.5 4.5 10.2 5 12.1 4.9 11.6 3.5 12.5-1.8 1.1-5-.6-5-2.5 0-.9-.9-1.5-2.2-1.5-2.2.1-2.2.1.5 2.3 3.5 2.9 3.6 5 .2 3.7-1.4-.5-2.5-.8-2.5-.6 0 .2 5 4.9 11.2 10.5 6.2 5.6 11.3 10.7 11.4 11.4.1.6.3 1.9.5 2.7.2.8-.2 1.4-.8 1.5-1.4 0-1.7.8-1.1 2.7.3.7 1.2.2 2.5-1.1 1.5-1.6 2.3-1.9 2.8-1.1.6.9 1 .9 1.7-.1.8-1.1.9-1 .5.2-.3.9 0 2.2.6 2.8.9 1 .9 1.2-.2.9-.7-.2-1.6.3-1.9 1.1-.3.8 0 1.1.7.7.7-.4.9-.2.5.8-.3.8-1.2 1.7-2 2-.9.3-1.3 1-.9 1.5.8 1.4-2.5 2.8-5.7 2.5-1.5-.2-3.8-1-5.1-1.9-1.7-1.1-2.6-1.2-2.9-.5-.3 1.1-9-2.9-14.8-6.8-2.3-1.5-2.3-1.4.5 1.8 3.2 3.8 8.1 7.4 11.4 8.5 4.8 1.5-.2 4.3-5.6 3.1-2.5-.5-2.6-.4-.7.5 1.5.8 4.5.8 9.5.2 5.5-.8 7.7-.7 8.6.2.9 1 .3 1.8-2.9 3.9-2.2 1.4-4.6 2.6-5.4 2.6-.8 0-4.4-1.3-8-3-3.9-1.7-6.1-2.4-5.4-1.5.7.8 1.6 1.5 2.1 1.5s3.4 1.2 6.5 2.7l5.7 2.7-4.3 3.9c-2.4 2.1-3.7 3.8-2.9 3.7 2.9-.5 3.6.1 3.4 2.7-.1 1.9-.9 3.2-2.6 4l-2.4 1.3h2.8c1.5 0 2.7-.5 2.7-1.1 0-.5.5-.7 1-.4.6.3 1.3-.1 1.6-.9.3-.9 1-1.4 1.4-1.1.4.3 1.1-.3 1.5-1.3.6-1.6.7-1.6 2 .2s1.5 1.7 4.5-1.3c1.7-1.7 3.4-3.1 3.6-3.1.5 0 1.2-.5 6.7-5.1 2-1.7 3.7-2.8 3.7-2.4 0 .4-.8 1.4-1.7 2.2-1.7 1.4-1.7 1.4 0 .9 1-.3 2.3-.6 2.8-.6.6 0 .7-.6.3-1.3-.6-.9-.5-.9.8 0 .8.7 1.8.9 2.2.5.4-.4 1.3-.7 1.9-.7.5 0 1.2-.6 1.5-1.3.4-1.3-1.8-1.3-2.8 0-.3.3-1.6 0-3-.8l-2.5-1.4 3 .6c2.7.5 2.8.4 1.3-.9-2.3-1.8-2.3-3.3.1-5.8 2-2.2 5.3-3.1 6.1-1.8.3.5 1.5 1 2.7 1.2 1.1.1 3 1 4.3 1.8 2.2 1.4 2.2 1.5.2 1.6-1.1.1-2.6-.5-3.3-1.3-.7-.8-1.5-1.1-1.8-.5-.3.5-1.5 1.1-2.6 1.3-2.4.4-5 2.6-4.1 3.5.3.4.6.3.6-.2 0-.4.8-.1 1.7.6 1.5 1.2 1.6 1.2 1-.4-.4-1.1-.3-1.6.3-1.2.6.3 1 .1 1-.5 0-.7.7-.9 1.6-.6 1 .4 1.3.2.9-.7-.4-.6.1-.3.9.7.9 1.1 1.6 2.4 1.6 2.9 0 .4.5.5 1 .2.6-.4.8-1.1.5-1.6-.4-.5-.1-.9.4-.9 1.3 0 1.4 1.7.2 2.4-.4.3-.7 1.7-.6 3.1.2 1.5-.1 2.3-.7 1.9-.6-.4-.8.2-.3 1.6.6 1.7.4 2.1-.6 1.4-1-.6-1-.3.1 1.1 1.4 1.7 1.3 1.8-.3 1.2-1.1-.4-1.6-.3-1.2.3 1.2 2 1.4 4.9.2 4.4-1.1-.4-6.7 4-6.7 5.3 0 .3.9-.2 2-1.2 2.9-2.6 4.8-2.7 5.6-.3.7 2.3-1.4 9.8-2.8 9.8-.4 0-.8.5-.8 1.1 0 .5-.9 3-2 5.5-1.9 4-2.5 4.6-4.6 4.3-.4 0-1 .4-1.4 1.1-.4.6-1.7 1.2-2.8 1.3-1.2.1-2.2.4-2.2.8s-2 1-4.5 1.3c-2.4.4-4.7 1.1-4.9 1.5-.3.4 1.7.4 4.5-.2 5.8-1.1 6.9-.5 4.4 2.3-1 1.1-1.3 2-.7 2 .7 0 1.2-.4 1.2-.9 0-1.3 3.3-.7 3.7.6.2.6-.6 1.8-1.9 2.7-1.2.9-1.7 1.6-1 1.6 1.7 0 6.4-4.8 8.7-8.7 1.8-3.1 5.8-5.3 9.5-5.3 1 0 2.3-.7 3-1.5 1.1-1.4 1-1.5-1.1-.8-2.1.8-3.2.8-6.2.4-.5 0 0-1.7 1.2-3.7 1.2-1.9 1.7-3.2 1.1-2.9-.6.3-.7-.1-.4-1 .4-.9.9-1.4 1.1-1.1.3.3 1.9-2 3.5-5.1 2.1-3.9 2.8-6.4 2.4-8.4-.5-2.6 1.3-5.6 2.7-4.3.3.3.3-.3 0-1.4-.6-2.3 2.5-6.4 4.1-5.5.6.4.5 0-.2-.9-1.9-2.3.2-3.1 3.9-1.4 1.6.7 1.9 3.2.6 5.3-.4.6-.3 1.4.3 1.8.9.6 1.4-1.4 1.1-4-.1-.6.5-.2 1.3.8.7.9 1.2 3.2 1 5-.3 1.7-.6 5.1-.9 7.5-.2 2.3-.8 4.8-1.2 5.5-.4.6-.8 2-.8 3.1-.1 1.1-1.5 3-3.1 4.2l-2.9 2.4 2.8-.5c1.5-.3 2.7-.3 2.7.1 0 .3-2.1 3.8-4.6 7.7-7 11.2-15.1 24.5-19.2 32-23.7 43.3-25.7 46.6-29.3 47.9-2 .7-3.2 2.1-4.2 5.3-.9 2.4-1.3 4.6-.9 4.9.3.3.1.6-.5.6s-4.3 3.6-8.3 8.1l-7.3 8.1-.1 9.8c-.1 6.4.3 10.3 1.1 11.1 1.5 1.5 8.2 2 10.6.7 1.5-.7 1.7-.4 1.7 2.5 0 4.8 2.1 6.3 4.8 3.4 2.1-2.3 3.9-6.4 6.7-15.9.9-3.1 3-7.8 4.8-10.5 6.9-10.7 9-14.9 8.8-18.2 0-1.4 1.1-4.3 2.6-6.5 6.1-9.4 30-37 42.3-49.1 22.1-21.6 25-24.6 25-26.3 0-.6.9-1.2 2-1.5 1.1-.3 2-1.2 2-2 0-2.6 5.5-13.7 6.8-13.7.6 0 1.2-.4 1.2-.8 0-.5.8-1.7 1.8-2.8 1-1 2.5-3.4 3.2-5.2.8-1.7 1.7-3.2 2-3.2.9.1 9.2 13.3 13.5 21.5 3.6 6.8 4.1 8.4 3.3 11-2.3 7.5-5.5 14.7-10.9 24-5.7 10.1-9.7 18.1-12 24.4-.7 1.9-3.3 6.4-5.8 10-2.4 3.6-5.3 8.8-6.4 11.6-2.1 5.6-3.5 7.7-4.7 7-.4-.3-2.2.8-3.9 2.5-1.8 1.6-4.1 3.2-5.2 3.5-1 .4-1.9 1.1-1.9 1.7 0 .5 1.6.1 3.6-1.1 4.3-2.6 5.6-2.6 5.3-.4-.3 3.5.2 3.8 2.4 1.1 1.8-2.2 3.3-2.8 8-3.2 4.2-.4 7.9-1.7 13-4.5 16.5-9 29.6-15.3 30.6-14.6.5.2.5 2.2 0 4.2-.4 2.1-1.3 6.5-2 9.8-.6 3.3-1.5 6.9-1.9 8-.4 1.1-1.3 3.8-1.9 6-.6 2.2-2 7.1-3.1 10.9-1.1 3.8-2.2 9.2-2.4 12-.7 8.1-2.6 15.6-4.1 15.6-.8 0-1.5 1.7-1.8 4.8-.8 7.3-1.8 10.6-3.8 12.2-1.8 1.5-2.6 3.4-7.9 18.5-2.3 6.7-3.2 8-5.4 8.6-1.5.4-4.6 2.7-7 5.1-2.3 2.4-7.2 7.1-10.8 10.5-3.9 3.7-6.8 7.4-7.1 9-.3 1.6-2.7 5.3-5.2 8.3-2.5 3-6 8-7.7 11-1.8 3-5.9 9.4-9.3 14.1-8.4 11.7-18.4 32.4-22.4 46.4l-1.8 6-4.4-.1c-2.4 0-5.5-.3-6.9-.7-2.2-.6-3.3.2-9.3 7.1-6.5 7.3-16.7 23.6-16.7 26.6 0 2.7 6.6 8.6 9.5 8.6 2.2 0 2.5.3 1.6 1.3-.6.8-1.3 3.1-1.6 5.3-.3 2.1-1 7.7-1.5 12.3-.6 4.7-1.3 8.7-1.5 9-.2.3-.6 5.6-1 11.8l-.7 11.1 3.6 1.7c2 1 3.6 2.1 3.6 2.6 0 .4 1.9 1.4 4.3 2 5.5 1.6 48.1 1.9 49.7.3 1.6-1.6 1.9-6.4.6-11-1.1-4.1-3.1-7.1-9.3-14-3.5-3.8-3.5-3.8-1.7-14.4.4-2.5 1.8-6.1 3.1-8 1.2-1.9 2.3-4 2.3-4.7 0-2.4 5.7-5.3 9.9-5.1 4.9.2 5.8-.7 9.1-8 2.8-6.3 2.4-7.6-3.8-11-2.3-1.3-4.2-2.7-4.2-3 0-.4 3.1-2.6 6.9-4.9 7.6-4.7 33.2-24.4 40.7-31.3 11.5-10.6 13.1-12.9 36.7-52 3.8-6.3 8.8-13.7 11.1-16.5 2.3-2.7 8.6-11.5 13.9-19.5 5.3-8 10.8-15.9 12.1-17.5 1.4-1.7 5.6-7.2 9.4-12.3 3.8-5 9-11.4 11.5-14.2 5.1-5.5 18.3-17 24.1-20.9l3.8-2.5 8.2 2.8c4.4 1.6 15.3 6.4 24.1 10.6 21.1 10.1 22.1 10.6 28.5 12.5 3 .9 10.5 3.4 16.5 5.6 6.1 2.1 12.9 4.1 15.2 4.5 3.9.6 4.1.8 3.2 3.1-.7 2-.4 3.5 2 7.7 2.1 3.8 2.7 5.7 2.1 7.6-1.8 6.3-3 12.3-3 15.8 0 2-1.1 6.1-2.5 9-2.9 6.2-4.6 12.1-5.1 17.7-.4 5.4-.7 18.7-.3 20 .1.5-.3 3-1 5.4-.7 2.3-1 4.9-.7 5.7.3.8-.6 2.5-2 3.9s-2.2 3-1.9 3.5c.4.6.8 3 1 5.4.4 4.3.4 4.4-2.8 5-1.7.3-4.2.8-5.3 1-1.2.3-5.1 1.6-8.8 3.1-3.6 1.4-7.8 2.8-9.2 3.1-3.2.6-6.6 2.3-7.6 3.8-2.5 3.6.3 20.3 6.1 36.6 1.6 4.7 6.2 20.1 10.1 34.4 9.6 35 11.6 39.2 19.2 40.3 2.7.3 4.1-.2 7.2-2.9l3.8-3.3.5-10c.5-11.2 1.7-16.5 3.9-16.5.9 0 1.3-.4.9-.9-.3-.5.2-1.6 1-2.4.8-.9 1.5-2.5 1.5-3.7 0-2.4 3.5-10.6 4.9-11.5.5-.3 1.2-.1 1.5.4 1.1 1.7 31.7 3.2 36.4 1.7 3-1 2.8-2.8-.8-5-1.7-.9-4.7-4.3-6.8-7.4-3.2-4.8-4.3-5.8-7.5-6.3-5.1-.8-10.6-5.6-10.7-9.2 0-1.6.2-1.7 3.1-.1 2.9 1.5 3.6 1.5 8.6-.1 8.5-2.7 8.9-3.3 12.9-21.4 1.5-6.4 3.8-15.2 5.1-19.6 1.3-4.4 3-11.4 3.7-15.5.7-4.1 2.3-12.5 3.4-18.5 1.2-6.1 2.6-16.6 3.1-23.5.5-6.9 1.2-13.9 1.5-15.5.2-1.7.6-10.5.7-19.8.2-9.2.6-16.7 1-16.7.3 0 .4-2.9.2-6.3-.4-4.9-.1-6.7 1.1-8 1.8-1.7 1.4-6-1-11.3-.7-1.7-1.6-4.8-1.9-6.8-.4-2-2.4-6.6-4.5-10.3-5.6-9.5-13.8-17.7-32.5-32.1-7-5.5-14.6-9.8-39.7-22.7-7.1-3.6-13.3-7.4-14-8.5-.8-1.2-2.4-2-4.1-2-1.5 0-3-.7-3.3-1.5-.4-.8-1.5-1.5-2.6-1.5s-2.2-.8-2.5-2c-.3-1.1-.9-2-1.3-2s-2.3-1.5-4.2-3.3c-4.3-4.3-12-8.7-15.2-8.7-3 0-4.2-1.6-2.6-3.5.9-1 .9-1.9.2-2.8-.6-.7-1-11.5-1.1-28 0-14.7-.5-29.3-1-32.5-.6-3.1-1.2-7.8-1.5-10.4-.4-4.7-.4-4.8 4.2-8.1 7.5-5.5 16.1-9.2 24.1-10.5 13.8-2.3 18.9-4.6 26.4-12.2 5.9-6 7.1-6.8 9.1-6 1.2.4 4.7 1.1 7.7 1.5 6.8.8 12.7 4.2 17.4 9.9 4.1 5 8 6.9 6.9 3.3-1.8-6.1-11.7-13-22-15.2-10.7-2.4-11.1-2.9-7.3-9 4.2-6.6 7.2-13.3 7.4-16.8.1-2.1-.4-3.1-2.4-4.1-3.4-1.6-19.8-2.1-23.6-.6-6.3 2.4-11.8 2.3-18.4-.4-7-2.8-11.3-3.6-21.8-4.1-3.9-.1-7.5-.5-8-.8-1.1-.7-5.4-9.3-9.7-19.6-2-4.6-4.6-9.8-5.8-11.5-1.3-1.7-3.6-5.7-5.3-8.9-4.5-8.8-11-16.5-15.3-18.3-2-.8-6.7-2.3-10.4-3.2l-6.8-1.6.4-3.3c.3-1.9 1.8-4.6 3.6-6.5 1.7-1.8 3.8-4.7 4.7-6.3.9-1.7 2.5-3.8 3.6-4.7 1.1-1 1.7-2.4 1.3-3.3-.3-1 .8-3 3.2-5.4 3.3-3.4 3.7-4.4 3.4-7.9-.3-3.3 0-4.3 1.7-5.4 1.2-.7 2.1-1.8 2.1-2.5 0-2.3 2.1-2.5 5.8-.5 2 1 5.3 2.2 7.2 2.6 5.6 1.1 13 4.8 13 6.5 0 .9 1.4 2.4 3.1 3.3 1.7 1 2.8 2.1 2.5 2.6-.2.4 1.1 2.1 3 3.7 2 1.7 4.4 3.8 5.5 4.7 1 1 2.6 1.8 3.4 1.8 3.1 0 9.5 14.8 9.5 22.1 0 1 1.1 2.6 2.5 3.5 1.4.9 2.5 2.3 2.5 3 0 .8.4 1.4.9 1.4s1.1 1.2 1.4 2.8c.7 3.2 4.3 8.2 6 8.2 1.7 0 10.7-8.3 10.7-9.8 0-1.4 5.5-10.8 8.1-13.7 1-1.2 1.6-3.2 1.4-4.8-.4-3-3-7.7-4.4-7.7-.4 0-1.4-1.1-2.1-2.5-.7-1.4-1.9-2.5-2.5-2.5-.7 0-1.9-1.4-2.6-3.2-.7-1.8-2.1-4-3.1-5-1.3-1.3-1.8-3.3-1.8-7.2 0-5.8-1.6-8.2-4.9-7.3-2 .5-5.6-2.7-4.7-4.2.3-.5-1.4-1.6-3.8-2.5-2.4-.9-4.7-2.4-5-3.2-.3-.8-1.1-1.4-1.8-1.3-5.4.7-8-.3-13.2-5-6.3-5.7-16.6-12-25.1-15.4-7.7-3.1-10.3-3.6-14.1-2.7zm-205 128.2c-.3.4-.1.8.5.8s.2 1.3-.7 3c-.9 1.6-2.1 3-2.6 3s-.3-.7.4-1.5c1-1.2 1-1.8 0-3-.9-1.1-.9-1.5-.1-1.5.7 0 1-.4.7-.8-.3-.5.1-.9.9-.9s1.2.4.9.9zm-36 36.7c.3.4-.4.7-1.4.6-2.7-.2-3.3-1-1-1.2 1.1-.1 2.2.2 2.4.6zm20 7c.3.5-.1 1.1-.9 1.4-.9.4-1.2.1-.8-.9.6-1.6 1-1.7 1.7-.5zm15 22.2c-.4.8.1.9 1.7.4 1.6-.4 2-.3 1.1.3-.8.5-1.3 1.3-1.3 1.7.2 1.3-2.8 1.5-3.6.3-.4-.7-.1-.8.7-.3.9.5 1 .2.5-1.4-.4-1.3-.2-2.1.5-2.1.6 0 .8.5.4 1.1zm4.1 5.9c.6.1 1 .2 1 .3 0 .1-.2.1-.4 0-.2-.2-1.1.6-1.8 1.7-.8 1.1-1.9 1.8-2.4 1.5-.5-.4-.9 0-1 .7 0 1-.2 1.1-.6 0-.3-.9-.9-1-1.7-.3-.9.8-1.3.7-1.3-.4 0-.8.4-1.2.8-.9.4.2 1 0 1.4-.6.3-.5 0-1-.7-1-.8-.1-.6-.6.6-1.5s2.5-1.1 3.5-.6c.9.5 2.1 1 2.6 1.1zm4.8 2c.7 2.7-.4 3.2-2.8 1.3-1.8-1.4-1.8-1.5-.1-.9 1.4.5 1.7.2 1.2-.9-.3-.8-.2-1.5.3-1.5s1.1.9 1.4 2zm20.1 4.5c.3.8 0 1.4-.6 1.2-.7-.1-1.2.4-1.3 1 0 .7-1 2-2.2 2.8-2.1 1.5-2.3 1.5-2.3-.2 0-1.5-.2-1.6-1-.3-.8 1.2-1 1.1-1-.8 0-1.3.6-2.9 1.3-3.7 1.6-1.9 6.3-1.9 7.1 0zm-51.2 16.4c-.8.4-1.3 1.1-1.3 1.5.3 2.3 0 3-.9 1.6-1-1.6.4-4 2.4-4 .7 0 .6.4-.2.9zM153 229c0 .5-.2 1-.4 1-.3 0-.8-.5-1.1-1-.3-.6-.1-1 .4-1 .6 0 1.1.4 1.1 1zm57 9.3c0 .7-.7 2.2-1.5 3.3-1.2 1.6-1.4 1.7-1.5.2 0-2.3 1.1-4.8 2.1-4.8.5 0 .9.6.9 1.3zM174.5 262c-1.6 3.1-2.9 3.7-4 2.1-.6-1 3.2-5.1 4.7-5.1.5 0 .2 1.3-.7 3z"/><path d="M177.3 203.3c0 .8.6 1.4 1.3 1.4.7 0 1-.6.7-1.4-.3-.7-.8-1.3-1.2-1.3-.4 0-.8.6-.8 1.3zm-44.5-84.6c.5 2.1.7 2.3 1 .9.2-1 0-2.2-.6-2.8-.6-.6-.7 0-.4 1.9zm22.2-1.1c0 1.3 1.8 3.9 2.4 3.4.2-.3-.2-1.4-1-2.4-.8-1.1-1.4-1.6-1.4-1zm-2 2.3c0 .6.4 1.3 1 1.6.6.3.7-.1.4-.9-.7-1.8-1.4-2.1-1.4-.7zm-26 41.5c0 .2.7.7 1.6 1 .8.3 1.2.2.9-.4-.6-1-2.5-1.4-2.5-.6zm-9.4 4.3c1.5 6 2.4 7.9 1.8 3.8-.3-2.2-.6-4.6-.6-5.3-.1-.6-.5-1.2-1-1.2s-.5 1.2-.2 2.7zm37.8-1c.3.6.2 1.4-.4 1.8-1.5.9-1.2 2.2.6 2.9 1.4.5 1.5.4.5-.8-.9-1.1-.9-1.5.1-1.9 1-.4 1-.7-.1-1.8-.8-.8-1.1-.9-.7-.2zm6.1 2.3c.3.5-.1 1-.9 1-.9 0-1.6.5-1.6 1 0 .7.7.7 2 0 1.7-.9 2-3 .4-3-.3 0-.2.4.1 1zm7.8 1.2c-1.1 1.9-1.2 3.7-.3 4.3.4.3 1-.2 1.4-1 .3-.8 0-1.5-.6-1.5-.7 0-.6-.5.2-1.5.7-.8 1-1.5.7-1.5-.3 0-.9.6-1.4 1.2zM118.7 179c5.3 9.3 9.3 15.5 9.3 14.4 0-.5-1.1-2.7-2.5-4.9-1.3-2.2-2.5-5.1-2.5-6.5 0-1.4-.7-3.6-1.5-5l-1.5-2.5.5 3c.5 2.7.4 2.8-.7 1.1-3.8-5.5-4.4-5.3-1.1.4zm47.8-4c-.3.6.1.7.9.4 1.8-.7 2.1-1.4.7-1.4-.6 0-1.3.4-1.6 1zm-53 7.7c.4 1 1.1 3 1.5 4.5.4 1.4 2 4.6 3.4 7 1.4 2.5 2.6 5.2 2.6 6.1 0 1 .5 1.7 1.1 1.7.5 0 .8-.4.4-.9-.3-.5-.1-1.2.4-1.5.5-.4-.3-2-1.9-3.7-1.5-1.8-3.8-5.8-5-9-1.1-3.3-2.4-5.9-2.7-5.9-.3 0-.2.8.2 1.7zm43.9 12.9c-.4 1.6-.2 2.9.6 3.4.9.5.9.9.1 1.3-.7.3-.7.4.1.2 1.4-.3 1.4-.7.3-4-.5-1.4-.4-1.6.3-.6.5.7 1.2.9 1.5.5.3-.5-.1-1.5-.9-2.2-1.1-1-1.5-.8-2 1.4zM155 204c0 .5.7.7 1.5.4.8-.4 1.5-.8 1.5-1 0-.2-.7-.4-1.5-.4s-1.5.4-1.5 1zm-28 2.1c0 .5.5.7 1 .4.6-.3 1-.8 1-1.1 0-.2-.4-.4-1-.4-.5 0-1 .5-1 1.1zm3 1.9c.8.5 2 1 2.5 1 .6 0 .3-.5-.5-1s-1.9-1-2.5-1c-.5 0-.3.5.5 1zm48.5 9c-2 3.8-1.9 4.2.8 3.5 2-.5 2-.5-.3.9-2.4 1.4-2.4 1.5-.2 1.3 1.2-.1 2.2-.5 2.2-1 0-.4.4-.6.9-.3s1.4-.1 2-.8c.9-1.1.9-1.9-.1-3.5-2-3.2-3.7-3.3-5.3-.1zm4.8 2.6c-.3.8-.7 1.4-1 1.4-.3 0-.3-.7.1-1.5.6-1.8.2-1.9-2.7-.4-1.9.9-2 .8-.6-.3.9-.7 1.4-1.9 1.1-2.6-.3-.9.3-.8 1.6.4 1.1.9 1.8 2.3 1.5 3zm16.3-.3c.3 1 .9 1.5 1.2 1.2.3-.3 0-1.1-.7-1.8-1-.9-1.1-.8-.5.6zm-66.5 9.7l-3.5 1.7 3.1-.1c1.7 0 3.1-.6 3-1.1-.1-.6.4-.9 1.1-.7.8.1 1.1-.2.7-.8-.3-.5-.7-1-.8-.9-.1.1-1.7.9-3.6 1.9zm5.9-.6c0 .2.7.7 1.6 1 .8.3 1.2.2.9-.4-.6-1-2.5-1.4-2.5-.6zm-2 9.5c0 .6.4 1.3 1 1.6.6.3.7-.1.4-.9-.7-1.8-1.4-2.1-1.4-.7zm30 6.2c0 1.2-2.5 3.9-3.6 3.9-.4 0-1.3.8-2 1.7-.7 1-1.8 1.8-2.5 1.8s-1.3.8-1.5 1.8c-.2 1.8-.2 1.8 1.9 0 1.2-1 2.7-2.5 3.4-3.3.7-.8 1.3-1.1 1.3-.7 0 .8 6-5 6-5.8 0-.3-.7-.5-1.5-.5s-1.5.5-1.5 1.1zm-4.5 23.9c-.3.6.1.7.9.4 1.8-.7 2.1-1.4.7-1.4-.6 0-1.3.4-1.6 1zm-1.4 4.6c0 1.1.3 1.4.6.6.3-.7.2-1.6-.1-1.9-.3-.4-.6.2-.5 1.3zm1.9-.6c0 .5.7.7 1.5.4.8-.4 1.5-.8 1.5-1 0-.2-.7-.4-1.5-.4s-1.5.4-1.5 1z"/></svg>